<?xml version="1.0" encoding="UTF-8" standalone="no" ?>
<!DOCTYPE svg PUBLIC "-//W3C//DTD SVG 1.1//EN" "http://www.w3.org/Graphics/SVG/1.1/DTD/svg11.dtd">
<svg xmlns="http://www.w3.org/2000/svg" xmlns:xlink="http://www.w3.org/1999/xlink" version="1.1" width="500" height="500" viewBox="0 0 500 500" xml:space="preserve">
<desc>Created with Fabric.js 4.6.0</desc>
<defs>
</defs>
<g transform="matrix(6.67 0 0 6.67 153.68 214.81)" id="DKNL9-qTL6-hE1aWhxiqh"  >
<path style="stroke: rgb(121,85,222); stroke-width: 1; stroke-dasharray: none; stroke-linecap: butt; stroke-dashoffset: 0; stroke-linejoin: miter; stroke-miterlimit: 4; fill: rgb(255,255,255); fill-rule: nonzero; opacity: 1;" vector-effect="non-scaling-stroke"  transform=" translate(0, 0)" d="M -16.59919 -15.54411 C -16.59919 -15.82393 -16.48803 -16.0923 -16.29017 -16.29016 C -16.0923 -16.488030000000002 -15.82394 -16.59918 -15.54412 -16.59918 L 15.54411 -16.59918 L 15.54411 -16.59918 C 15.82393 -16.59918 16.0923 -16.48802 16.29016 -16.29016 C 16.488030000000002 -16.09229 16.59918 -15.82393 16.59918 -15.54411 L 16.59918 15.54412 L 16.59918 15.54412 C 16.59918 16.12682 16.12681 16.5992 15.5441 16.5992 L -15.54413 16.5992 L -15.54413 16.5992 C -16.126829999999998 16.5992 -16.59921 16.126829999999998 -16.59921 15.54412 z" stroke-linecap="round" />
</g>
<g transform="matrix(9.97 0 0 9.97 153.68 230.58)" style="" id="c7xOR7zvpAWb5J6aiQ_Ac"  >
		<text xml:space="preserve" font-family="Hanuman" font-size="20" font-style="normal" font-weight="normal" line-height="1.16" style="stroke: none; stroke-width: 1; stroke-dasharray: none; stroke-linecap: butt; stroke-dashoffset: 0; stroke-linejoin: miter; stroke-miterlimit: 4; fill: rgb(0,0,0); fill-rule: nonzero; opacity: 1; white-space: pre;" ><tspan x="-7.42" y="6.28" >if</tspan></text>
</g>
</svg>